<svg width="5" height="5" viewBox="0 0 5 5" fill="none" xmlns="http://www.w3.org/2000/svg">
<g id="Layout - Main ">
<g id="Frame 18">
<g id="slot 1">
<g id="Frame 18_2">
<g id="Frame 18_3">
<g id="Hicon / Bold / Time Circle 1" clip-path="url(#clip0_0_1)">
<g id="Time Circle 1">
<g id="Vector">
<path fill-rule="evenodd" clip-rule="evenodd" d="M2.50002 0.312496C1.26313 0.312496 0.260437 1.31519 0.260437 2.55208C0.260437 3.78897 1.26313 4.79166 2.50002 4.79166C3.73691 4.79166 4.7396 3.78897 4.7396 2.55208C4.7396 1.31519 3.73691 0.312496 2.50002 0.312496ZM2.65627 1.71875C2.65627 1.63245 2.58632 1.5625 2.50002 1.5625C2.41373 1.5625 2.34377 1.63245 2.34377 1.71875V2.59496C2.34377 2.66138 2.3184 2.72528 2.27284 2.77361L1.96967 3.09517C1.91047 3.15796 1.91338 3.25684 1.97617 3.31604C2.03896 3.37524 2.13784 3.37233 2.19704 3.30954L2.50021 2.98798C2.60045 2.88167 2.65627 2.74108 2.65627 2.59496V1.71875Z" fill="white"/>
<path d="M1.24346 0.382423C1.31085 0.328515 1.32177 0.230188 1.26786 0.162804C1.21396 0.095419 1.11563 0.0844938 1.04825 0.138401L0.527412 0.555068C0.460027 0.608976 0.449102 0.707303 0.50301 0.774688C0.556917 0.842072 0.655244 0.852997 0.722629 0.79909L1.24346 0.382423Z" fill="white"/>
<path d="M3.9518 0.138401C3.88441 0.0844938 3.78608 0.095419 3.73218 0.162804C3.67827 0.230188 3.68919 0.328515 3.75658 0.382423L4.27741 0.79909C4.3448 0.852997 4.44312 0.842072 4.49703 0.774688C4.55094 0.707303 4.54001 0.608976 4.47263 0.555068L3.9518 0.138401Z" fill="white"/>
</g>
</g>
</g>
</g>
</g>
</g>
</g>
</g>
<defs>
<clipPath id="clip0_0_1">
</clipPath>
</defs>
</svg>
