<svg width="22" height="26" viewBox="20 18 22 26" fill="none" xmlns="http://www.w3.org/2000/svg">
<g id="Frame 1">
<g id="Frame 1_2">
<g id="Categories">
<g id="Frame 8">
<path id="Vector" fill-rule="evenodd" clip-rule="evenodd" d="M26.4449 19.8286C27.602 18.6557 29.2049 17.9999 31.0444 17.9999C32.884 17.9999 34.4869 18.6557 35.644 19.8286C36.7994 20.9992 37.4598 22.6325 37.5158 24.497C37.5419 25.3718 37.5577 26.3783 37.5577 27.5332C37.5577 28.6882 37.5419 29.6947 37.5158 30.57C37.4598 32.434 36.7994 34.0673 35.644 35.2379C34.4869 36.4108 32.884 37.0666 31.0444 37.0666C29.2049 37.0666 27.602 36.4108 26.4449 35.2379C25.2895 34.0673 24.6291 32.434 24.5731 30.5695C24.544 29.5577 24.53 28.5455 24.5311 27.5332C24.5311 26.3777 24.547 25.3718 24.5731 24.4964C24.6286 22.6325 25.2895 20.9997 26.4449 19.8286ZM22.8637 28.3999C22.9498 28.3999 23.0348 28.4049 23.1186 28.4149C23.1243 29.2238 23.1379 29.9547 23.1583 30.614C23.2234 32.8037 24.0056 34.8028 25.447 36.2629C26.8935 37.7281 28.8656 38.511 31.0444 38.511C33.2233 38.511 35.196 37.7281 36.6419 36.2629C38.0828 34.8023 38.8655 32.8037 38.9312 30.614C38.951 29.9524 38.9652 29.2186 38.9708 28.4063C39.026 28.4024 39.0815 28.4003 39.1374 28.3999H39.7507C41.0206 28.3999 42.0315 29.4786 41.9992 30.7613C41.8599 36.3467 38.4838 40.4599 33.4351 41.4565C33.4025 41.7814 33.3639 42.1056 33.3196 42.4289C33.212 43.2089 32.6218 43.9161 31.736 43.9774C31.5423 43.9916 31.312 43.9991 31.045 43.9999C30.7777 43.9991 30.5472 43.9916 30.3535 43.9774C29.4677 43.9156 28.8764 43.2089 28.7705 42.4272C28.7278 42.1103 28.6906 41.7927 28.6589 41.4744C23.5593 40.5107 20.1418 36.3819 20.0007 30.7619C19.969 29.4792 20.9806 28.4005 22.2492 28.4005L22.8637 28.3999Z" fill="white"/>
</g>
</g>
</g>
</g>
</svg>
