<svg width="22" height="40" viewBox="0 0 22 40" fill="none" xmlns="http://www.w3.org/2000/svg">
<path d="M6.84981 19.536C11.6123 25.4473 16.3755 31.3586 21.1379 37.2699C20.9494 37.686 20.5361 38.4394 19.7145 39.0618C18.39 40.0641 16.9381 40.0171 16.5213 39.9894C11.115 33.4663 5.7088 26.9426 0.302555 20.4195C0.153884 20.1435 -0.0403141 19.6832 0.00734624 19.1341C0.0585633 18.5458 0.363732 18.1304 0.479681 17.9732C1.11634 17.106 7.54835 9.84459 16.3947 0.00735474C16.6913 0.00735474 17.828 0.045056 18.8396 0.913612C19.8077 1.74447 20.0354 2.7994 20.0894 3.10243C18.6817 4.91779 17.5179 6.3661 16.7546 7.30508C13.3039 11.5532 11.4849 13.7499 8.02211 17.9902C7.67852 18.4106 7.36482 18.8552 6.84909 19.5381L6.84981 19.536Z" fill="#FFFFFF"/>
</svg>
